<?xml version="1.0" encoding="utf-8"?>
<!-- Generator: Adobe Illustrator 26.0.1, SVG Export Plug-In . SVG Version: 6.00 Build 0)  -->
<svg version="1.1" id="Layer_1" xmlns="http://www.w3.org/2000/svg" xmlns:xlink="http://www.w3.org/1999/xlink" x="0px" y="0px"
	 viewBox="0 0 288 232.3" style="enable-background:new 0 0 288 232.3;" xml:space="preserve">
<style type="text/css">
	.st0{font-family:'Arial-BoldMT';}
	.st1{font-size:12px;}
	.st2{stroke:#000000;stroke-miterlimit:10;}
	.st3{fill:#58595B;}
	.st4{font-size:10px;}
	.st5{fill:#863F98;stroke:#000000;stroke-width:0.25;stroke-miterlimit:10;}
</style>
<image style="overflow:visible;" width="1345" height="396" xlink:href="649EE231136B00EF.jpg"  transform="matrix(0.1607 0 0 0.1607 37.1033 84.8274)">
</image>
<image style="overflow:visible;" width="1650" height="463" xlink:href="../../data/eIF3A/eIF3a-sequence.png"  transform="matrix(0.1658 0 0 0.1658 14.4 2.8652)">
</image>
<image style="overflow:visible;" width="1652" height="463" xlink:href="../../data/eIF3A/eIF3A-ss.png"  transform="matrix(0.1656 0 0 0.1656 14.4 153.7051)">
</image>
<text transform="matrix(1 0 0 1 2.1904 12.1763)" class="st0 st1">A</text>
<text transform="matrix(1 0 0 1 2.1905 94.0109)" class="st0 st1">B</text>
<text transform="matrix(1 0 0 1 2.1905 163.0039)" class="st0 st1">C</text>
<line class="st2" x1="118.1" y1="161.4" x2="137.7" y2="127.1"/>
<line class="st2" x1="250.8" y1="161.4" x2="229.2" y2="123.7"/>
<text transform="matrix(1 0 0 1 8.4232 142.4913)" class="st3 st0 st4">eIF3A</text>
<text transform="matrix(1 0 0 1 102.991 114.1362)" class="st5 st0 st4">resolved charged region</text>
</svg>
